<svg width="100" height="100" viewBox="0 0 100 100" fill="none" xmlns="http://www.w3.org/2000/svg">
<rect width="100" height="100" rx="10" fill="url(#paint0_linear_1_4)"/>
<path d="M14.912 62L12.512 38.64H15.968L17.376 54.96C17.4187 55.3227 17.4507 55.7707 17.472 56.304C17.5147 56.816 17.5467 57.3387 17.568 57.872C17.6107 58.4053 17.632 58.8747 17.632 59.28C17.6747 58.8747 17.7173 58.4053 17.76 57.872C17.8027 57.3387 17.8453 56.816 17.888 56.304C17.952 55.7707 18.0053 55.3227 18.048 54.96L19.968 38.64H23.328L25.12 54.96C25.184 55.3227 25.2373 55.7707 25.28 56.304C25.344 56.816 25.408 57.3387 25.472 57.872C25.536 58.4053 25.5893 58.8747 25.632 59.28C25.6533 58.8747 25.6747 58.4053 25.696 57.872C25.7173 57.3387 25.7387 56.816 25.76 56.304C25.8027 55.7707 25.8453 55.3227 25.888 54.96L27.264 38.64H30.688L28.16 62H23.744L22.016 45.616C21.9733 45.2107 21.92 44.7413 21.856 44.208C21.8133 43.6533 21.7707 43.1093 21.728 42.576C21.6853 42.0213 21.6533 41.552 21.632 41.168C21.6107 41.552 21.568 42.0213 21.504 42.576C21.4613 43.1093 21.4187 43.6533 21.376 44.208C21.3333 44.7413 21.2907 45.2107 21.248 45.616L19.36 62H14.912ZM33.6195 62V58.352H39.7635V48.016H34.4195V44.4H43.6035V58.352H49.0435V62H33.6195ZM41.3635 41.456C40.5528 41.456 39.9128 41.2533 39.4435 40.848C38.9742 40.4213 38.7395 39.856 38.7395 39.152C38.7395 38.448 38.9742 37.8933 39.4435 37.488C39.9128 37.0613 40.5528 36.848 41.3635 36.848C42.1742 36.848 42.8142 37.0613 43.2835 37.488C43.7528 37.8933 43.9875 38.448 43.9875 39.152C43.9875 39.856 43.7528 40.4213 43.2835 40.848C42.8142 41.2533 42.1742 41.456 41.3635 41.456ZM52.935 62V38.64H56.935V51.312H59.719L64.007 44.4H68.487L63.175 52.912L68.583 62H64.007L59.719 54.704H56.935V62H52.935ZM71.9945 62V58.352H78.1385V48.016H72.7945V44.4H81.9785V58.352H87.4185V62H71.9945ZM79.7385 41.456C78.9278 41.456 78.2878 41.2533 77.8185 40.848C77.3492 40.4213 77.1145 39.856 77.1145 39.152C77.1145 38.448 77.3492 37.8933 77.8185 37.488C78.2878 37.0613 78.9278 36.848 79.7385 36.848C80.5492 36.848 81.1892 37.0613 81.6585 37.488C82.1278 37.8933 82.3625 38.448 82.3625 39.152C82.3625 39.856 82.1278 40.4213 81.6585 40.848C81.1892 41.2533 80.5492 41.456 79.7385 41.456Z" fill="#0D7C25"/>
<defs>
<linearGradient id="paint0_linear_1_4" x1="50" y1="0" x2="50" y2="100" gradientUnits="userSpaceOnUse">
<stop stop-color="#E9FFBC"/>
<stop offset="1" stop-color="#59FD56"/>
</linearGradient>
</defs>
</svg>
